<svg width="83" height="77" viewBox="0 0 83 77" fill="none" xmlns="http://www.w3.org/2000/svg">
<mask id="mask0" mask-type="alpha" maskUnits="userSpaceOnUse" x="0" y="0" width="83" height="77">
<rect width="83" height="77" fill="#C4C4C4"/>
</mask>
<g mask="url(#mask0)">
<path d="M21.3833 3H61.6166V21.9333H21.3833V3Z" fill="#6DC82A"/>
<path d="M73.4498 64.5322H75.8164V68.0822C75.8164 70.6974 73.6983 72.8156 71.0831 72.8156H11.9164C9.30127 72.8156 7.18311 70.6974 7.18311 68.0822V64.5322H10.7331H33.2164L34.3998 66.8989H48.5998L49.7831 64.5322H73.4498Z" fill="#3A5361"/>
<path d="M73.4506 26.666V64.5326H49.7839L48.6006 66.8993H34.4006L33.2172 64.5326H10.7339V26.666C10.7339 24.0508 12.8521 21.9326 15.4672 21.9326H68.7172C71.3324 21.9326 73.4506 24.0508 73.4506 26.666Z" fill="#797B8D"/>
<path d="M15.4663 26.667H68.7163V59.8003H15.4663V26.667Z" fill="#BBEC96"/>
<path d="M61.6167 36.1337C62.9237 36.1337 63.9833 35.0741 63.9833 33.7671C63.9833 32.46 62.9237 31.4004 61.6167 31.4004C60.3096 31.4004 59.25 32.46 59.25 33.7671C59.25 35.0741 60.3096 36.1337 61.6167 36.1337Z" fill="#6DC82A"/>
<path d="M52.1504 44.4159C53.4574 44.4159 54.517 43.3564 54.517 42.0493C54.517 40.7422 53.4574 39.6826 52.1504 39.6826C50.8433 39.6826 49.7837 40.7422 49.7837 42.0493C49.7837 43.3564 50.8433 44.4159 52.1504 44.4159Z" fill="#6DC82A"/>
<path d="M41.5 42.0507C42.807 42.0507 43.8666 40.9911 43.8666 39.6841C43.8666 38.377 42.807 37.3174 41.5 37.3174C40.1929 37.3174 39.1333 38.377 39.1333 39.6841C39.1333 40.9911 40.1929 42.0507 41.5 42.0507Z" fill="#6DC82A"/>
<path d="M30.8506 52.7001C32.1576 52.7001 33.2172 51.6405 33.2172 50.3335C33.2172 49.0264 32.1576 47.9668 30.8506 47.9668C29.5435 47.9668 28.4839 49.0264 28.4839 50.3335C28.4839 51.6405 29.5435 52.7001 30.8506 52.7001Z" fill="#6DC82A"/>
<path d="M22.5669 36.1337C23.8739 36.1337 24.9335 35.0741 24.9335 33.7671C24.9335 32.46 23.8739 31.4004 22.5669 31.4004C21.2598 31.4004 20.2002 32.46 20.2002 33.7671C20.2002 35.0741 21.2598 36.1337 22.5669 36.1337Z" fill="#6DC82A"/>
<path d="M75.8167 63.3499H74.6333V26.6666C74.6333 23.4036 71.9797 20.7499 68.7167 20.7499H61.6167V18.3833H59.25V20.7499H56.8833V17.1999H54.5167V20.7499H47.4167V18.3833H45.05V20.7499H37.95V16.0166H35.5833V20.7499H28.4833V18.3833H26.1167V20.7499H23.75V17.1999H21.3833V20.7499H15.4667C12.2036 20.7499 9.55 23.4036 9.55 26.6666V63.3499H7.18333C6.52954 63.3499 6 63.8795 6 64.5333V68.0833C6 71.3463 8.65363 73.9999 11.9167 73.9999H71.0833C74.3464 73.9999 77 71.3463 77 68.0833V64.5333C77 63.8795 76.4705 63.3499 75.8167 63.3499ZM11.9167 26.6666C11.9167 24.7097 13.5097 23.1166 15.4667 23.1166H68.7167C70.6736 23.1166 72.2667 24.7097 72.2667 26.6666V63.3499H49.7833C49.3351 63.3499 48.9254 63.6029 48.7242 64.0037L47.8693 65.7166H35.1322L34.2757 64.0037C34.0761 63.6029 33.6663 63.3499 33.2181 63.3499H11.9167V26.6666ZM74.6333 68.0833C74.6333 70.0402 73.0403 71.6333 71.0833 71.6333H11.9167C9.95973 71.6333 8.36667 70.0402 8.36667 68.0833V65.7166H32.486L33.3424 67.4295C33.5421 67.8303 33.9518 68.0833 34.4 68.0833H48.6C49.0482 68.0833 49.4579 67.8303 49.6591 67.4295L50.514 65.7166H74.6333V68.0833Z" fill="#1A1A1A"/>
<path d="M69.9004 59.8001V26.6667C69.9004 26.0129 69.3708 25.4834 68.717 25.4834H15.467C14.8132 25.4834 14.2837 26.0129 14.2837 26.6667V59.8001C14.2837 60.4539 14.8132 60.9834 15.467 60.9834H68.717C69.3708 60.9834 69.9004 60.4539 69.9004 59.8001ZM67.5337 47.4771L63.1465 51.8643C62.9246 52.0862 62.8004 52.388 62.8004 52.7015V58.6182H59.2504V52.0078L62.4542 48.8039C62.6761 48.5821 62.8004 48.2803 62.8004 47.9667V37.0993C64.1745 36.6097 65.167 35.308 65.167 33.7667C65.167 32.2254 64.1745 30.9238 62.8004 30.4342V27.8501H67.5337V47.4771ZM29.667 50.3334C29.667 49.6811 30.1966 49.1501 30.8504 49.1501C31.5041 49.1501 32.0337 49.6811 32.0337 50.3334C32.0337 50.9857 31.5041 51.5167 30.8504 51.5167C30.1966 51.5167 29.667 50.9857 29.667 50.3334ZM32.0337 53.666C33.4078 53.1764 34.4004 51.8747 34.4004 50.3334C34.4004 48.3765 32.8073 46.7834 30.8504 46.7834C28.8934 46.7834 27.3004 48.3765 27.3004 50.3334C27.3004 51.8747 28.2929 53.1764 29.667 53.666V58.6167H24.9337V47.273L30.5042 41.7025C30.7261 41.4806 30.8504 41.1788 30.8504 40.8653V27.8486H33.217V43.2319C33.217 43.5455 33.3413 43.8472 33.5631 44.0691L40.317 50.823V58.6167H32.0337V53.666ZM41.5004 40.8667C40.8466 40.8667 40.317 40.3357 40.317 39.6834C40.317 39.0311 40.8466 38.5001 41.5004 38.5001C42.1541 38.5001 42.6837 39.0311 42.6837 39.6834C42.6837 40.3357 42.1541 40.8667 41.5004 40.8667ZM40.317 36.3508C38.9429 36.8404 37.9504 38.1421 37.9504 39.6834C37.9504 41.2247 38.9429 42.5264 40.317 43.016V47.4771L35.5837 42.7438V27.8501H40.317V36.3508ZM42.6837 43.016C44.0578 42.5264 45.0504 41.2247 45.0504 39.6834C45.0504 38.1421 44.0578 36.8404 42.6837 36.3508V27.8501H47.417V30.2167C47.417 30.5303 47.5413 30.8321 47.7631 31.0539L50.967 34.2563V38.7175C49.5929 39.2071 48.6004 40.5088 48.6004 42.0501C48.6004 43.5914 49.5929 44.893 50.967 45.3826V47.4771L45.3965 53.0477C45.1746 53.2695 45.0504 53.5713 45.0504 53.8849V58.6182H42.6837V43.016ZM52.1504 43.2334C51.4966 43.2334 50.967 42.7024 50.967 42.0501C50.967 41.3978 51.4966 40.8667 52.1504 40.8667C52.8041 40.8667 53.3337 41.3978 53.3337 42.0501C53.3337 42.7024 52.8041 43.2334 52.1504 43.2334ZM52.1504 32.0938L49.7837 29.7271V27.8501H54.517V29.7271L52.1504 32.0938ZM47.417 54.373L50.967 50.823V58.6167H47.417V54.373ZM53.3337 45.3826C54.7078 44.893 55.7004 43.5914 55.7004 42.0501C55.7004 40.5088 54.7078 39.2071 53.3337 38.7175V34.2563L56.5376 31.0525C56.7594 30.8306 56.8837 30.5288 56.8837 30.2153V27.8486H60.4337V30.4327C59.0595 30.9223 58.067 32.224 58.067 33.7653C58.067 35.3065 59.0595 36.6082 60.4337 37.0978V47.4756L57.2298 50.6795C57.0079 50.9014 56.8837 51.2031 56.8837 51.5167V58.6167H53.3337V45.3826ZM61.617 34.9501C60.9632 34.9501 60.4337 34.419 60.4337 33.7667C60.4337 33.1144 60.9632 32.5834 61.617 32.5834C62.2708 32.5834 62.8004 33.1144 62.8004 33.7667C62.8004 34.419 62.2708 34.9501 61.617 34.9501ZM22.567 34.9501C21.9132 34.9501 21.3837 34.419 21.3837 33.7667C21.3837 33.1144 21.9132 32.5834 22.567 32.5834C23.2208 32.5834 23.7504 33.1144 23.7504 33.7667C23.7504 34.419 23.2208 34.9501 22.567 34.9501ZM21.3837 27.8501V30.4342C20.0095 30.9238 19.017 32.2254 19.017 33.7667C19.017 35.308 20.0095 36.6097 21.3837 37.0993V39.1938L16.6504 43.9271V27.8501H21.3837ZM16.6504 47.273L23.4042 40.5191C23.6261 40.2973 23.7504 39.9955 23.7504 39.6819V37.0978C25.1245 36.6082 26.117 35.3065 26.117 33.7653C26.117 32.224 25.1245 30.9223 23.7504 30.4327V27.8501H28.4837V40.3771L22.9131 45.9477C22.6913 46.1695 22.567 46.4713 22.567 46.7849V58.6182H16.6504V47.273ZM65.167 58.6167V53.1897L67.5337 50.823V58.6167H65.167Z" fill="#1A1A1A"/>
<path d="M40.3169 16.0166H42.6836V18.3833H40.3169V16.0166Z" fill="#1A1A1A"/>
<path d="M40.3169 7.7334H42.6836V13.6501H40.3169V7.7334Z" fill="#1A1A1A"/>
<path d="M40.3169 3H42.6836V5.36667H40.3169V3Z" fill="#1A1A1A"/>
<path d="M45.0498 13.6504H47.4165V16.0171H45.0498V13.6504Z" fill="#1A1A1A"/>
<path d="M45.0498 3H47.4165V11.2833H45.0498V3Z" fill="#1A1A1A"/>
<path d="M59.25 13.6504H61.6167V16.0171H59.25V13.6504Z" fill="#1A1A1A"/>
<path d="M59.25 3H61.6167V11.2833H59.25V3Z" fill="#1A1A1A"/>
<path d="M26.1167 13.6504H28.4834V16.0171H26.1167V13.6504Z" fill="#1A1A1A"/>
<path d="M26.1167 3H28.4834V6.55H26.1167V3Z" fill="#1A1A1A"/>
<path d="M49.7837 12.4668H52.1504V18.3835H49.7837V12.4668Z" fill="#1A1A1A"/>
<path d="M49.7837 7.7334H52.1504V10.1001H49.7837V7.7334Z" fill="#1A1A1A"/>
<path d="M49.7837 3H52.1504V5.36667H49.7837V3Z" fill="#1A1A1A"/>
<path d="M30.8496 3H33.2163V6.55H30.8496V3Z" fill="#1A1A1A"/>
<path d="M30.8496 8.91699H33.2163V11.2837H30.8496V8.91699Z" fill="#1A1A1A"/>
<path d="M30.8496 13.6504H33.2163V18.3837H30.8496V13.6504Z" fill="#1A1A1A"/>
<path d="M35.5835 3H37.9502V8.91667H35.5835V3Z" fill="#1A1A1A"/>
<path d="M35.5835 11.2832H37.9502V13.6499H35.5835V11.2832Z" fill="#1A1A1A"/>
<path d="M26.1167 8.91699H28.4834V11.2837H26.1167V8.91699Z" fill="#1A1A1A"/>
<path d="M54.5166 3H56.8833V14.8333H54.5166V3Z" fill="#1A1A1A"/>
<path d="M21.3833 3H23.75V14.8333H21.3833V3Z" fill="#1A1A1A"/>
</g>
</svg>
