<svg width="83" height="77" viewBox="0 0 83 77" fill="none" xmlns="http://www.w3.org/2000/svg">
<mask id="mask0" mask-type="alpha" maskUnits="userSpaceOnUse" x="0" y="0" width="83" height="77">
<rect width="83" height="77" fill="#C4C4C4"/>
</mask>
<g mask="url(#mask0)">
<path d="M65.6858 45.1137L64.1338 44.1823V33.3643C64.1332 32.8125 63.7799 32.3227 63.2563 32.1486L59.4083 30.8659C59.0764 30.7557 58.7138 30.7852 58.405 30.9486C58.0956 31.1115 57.8664 31.3939 57.7699 31.7302L55.6681 39.1005L51.1468 36.3874L50.0245 13.5099C50.0251 11.9392 49.4489 10.4235 48.4043 9.25044L41.3559 1.31585C40.6256 0.494139 39.5791 0.0244141 38.4805 0.0244141C37.3814 0.0244141 36.3348 0.494139 35.6046 1.31585L28.5562 9.25044C27.5222 10.4047 26.9466 11.8972 26.9366 13.4473L25.8167 36.3887L21.2923 39.1005L19.1867 31.7302C19.0903 31.3939 18.861 31.1115 18.5517 30.9486C18.2429 30.7852 17.8803 30.7557 17.5483 30.8659L13.7003 32.1486C13.1767 32.3227 12.8235 32.8125 12.8229 33.3643V44.1823L11.2709 45.1137C8.25277 46.9161 6.22669 50.0019 5.77262 53.4879L3.8599 67.8271C3.81105 68.1934 3.92253 68.563 4.16616 68.841C4.40979 69.1191 4.76114 69.2788 5.13129 69.2788H27.1326L28.2368 75.9026C28.3395 76.5214 28.8743 76.9748 29.5019 76.9748H47.4592C48.0861 76.9748 48.621 76.5214 48.7237 75.9026L49.8278 69.2788H71.8298C72.1993 69.2788 72.5506 69.1191 72.7943 68.841C73.0379 68.563 73.1494 68.1934 73.1005 67.8271L71.1884 53.4879C70.7331 50.0013 68.7051 46.9149 65.6858 45.1137ZM59.8687 33.7238L61.5685 34.2893V42.6429L57.9409 40.4627L59.8687 33.7238ZM15.3926 34.2893L17.0917 33.7238L19.0157 40.4665L15.3926 42.6429V34.2893ZM46.3725 74.4095H30.5879L29.7324 69.2788H37.1979V70.5615C37.1979 71.2698 37.7716 71.8441 38.4805 71.8441C39.1889 71.8441 39.7632 71.2698 39.7632 70.5615V69.2788H47.2281L46.3725 74.4095ZM39.7632 66.7135V53.8869C39.7632 53.1785 39.1889 52.6042 38.4805 52.6042C37.7716 52.6042 37.1979 53.1785 37.1979 53.8869V66.7135H6.59558L8.31477 53.8255C8.66926 51.1136 10.2463 48.7143 12.5949 47.3132L25.6664 39.4701L25.6539 39.7162C25.6414 39.9698 25.7053 40.221 25.8355 40.4383L29.6835 46.8516C29.9127 47.2587 30.3443 47.5099 30.8115 47.5061C31.2787 47.503 31.7071 47.2456 31.9294 46.8347C32.1524 46.4245 32.1342 45.9253 31.8825 45.5314L28.2355 39.4519L29.5019 13.5099C29.5006 12.5673 29.847 11.6573 30.4739 10.954L37.521 3.02439C37.7691 2.75696 38.1179 2.60477 38.483 2.60477C38.8475 2.60477 39.1964 2.75696 39.445 3.02439L46.4928 10.954C47.1279 11.6774 47.4723 12.6105 47.4592 13.5732L48.7224 39.4519L45.0755 45.5314C44.7304 46.1377 44.9327 46.908 45.5308 47.2669C46.1289 47.6251 46.9036 47.4404 47.2757 46.8504L51.1236 40.4371C51.2545 40.2204 51.3184 39.9692 51.3072 39.7162L51.2953 39.4701L64.3668 47.3132C66.7154 48.7143 68.2924 51.1136 68.6469 53.8255L70.3661 66.7135H39.7632Z" fill="black"/>
<path d="M38.4812 29.5167C41.8495 29.5167 43.6119 24.3554 43.6119 19.2554C43.6119 14.1555 41.8495 8.99414 38.4812 8.99414C35.1124 8.99414 33.3506 14.1567 33.3506 19.2554C33.3506 24.3542 35.1124 29.5167 38.4812 29.5167ZM38.4812 11.5595C39.3787 11.5595 41.0466 14.483 41.0466 19.2554C41.0466 24.0285 39.3787 26.9514 38.4812 26.9514C37.5831 26.9514 35.9159 24.0297 35.9159 19.2554C35.9159 14.4818 37.5831 11.5595 38.4812 11.5595Z" fill="black"/>
<path d="M16.6765 51.3223C13.8425 51.3223 11.5459 53.6195 11.5459 56.4529C11.5459 59.2863 13.8425 61.5836 16.6765 61.5836C19.5099 61.5836 21.8072 59.2863 21.8072 56.4529C21.8072 53.6195 19.5099 51.3223 16.6765 51.3223ZM16.6765 59.0182C15.2592 59.0182 14.1112 57.8696 14.1112 56.4529C14.1112 55.0362 15.2592 53.8876 16.6765 53.8876C18.0932 53.8876 19.2419 55.0362 19.2419 56.4529C19.2419 57.8696 18.0932 59.0182 16.6765 59.0182Z" fill="black"/>
<path d="M62.8516 51.3223H52.5903C51.8813 51.3223 51.3076 51.8966 51.3076 52.6049V60.3009C51.3076 61.0093 51.8813 61.5836 52.5903 61.5836H62.8516C63.5599 61.5836 64.1342 61.0093 64.1342 60.3009V52.6049C64.1342 51.8966 63.5599 51.3223 62.8516 51.3223ZM61.5689 59.0182H53.8729V53.8876H61.5689V59.0182Z" fill="black"/>
<path d="M41.9537 31.1751C41.4533 30.6747 40.641 30.6747 40.1405 31.1751L32.4446 38.8711C32.1107 39.193 31.9773 39.6703 32.0945 40.1187C32.2122 40.5671 32.5623 40.9172 33.0107 41.035C33.4592 41.1521 33.9358 41.018 34.2577 40.6849L41.9537 32.9889C42.4547 32.4878 42.4547 31.6762 41.9537 31.1751Z" fill="black"/>
<path d="M42.705 36.3053L35.009 44.0013C34.6752 44.3232 34.5418 44.8005 34.6589 45.2489C34.7767 45.6973 35.1268 46.0474 35.5752 46.1652C36.0236 46.2823 36.5002 46.1483 36.8222 45.8151L44.5181 38.1191C45.0048 37.6162 44.9979 36.8158 44.5031 36.321C44.0083 35.8262 43.2079 35.8193 42.705 36.3053Z" fill="black"/>
<path d="M61.5687 11.5593C63.6937 11.5593 65.4167 9.83631 65.4167 7.71127C65.4167 5.58623 63.6937 3.86328 61.5687 3.86328C59.443 3.86328 57.7207 5.58623 57.7207 7.71127C57.7207 9.83631 59.443 11.5593 61.5687 11.5593ZM61.5687 6.42861C62.277 6.42861 62.8514 7.00292 62.8514 7.71127C62.8514 8.41962 62.277 8.99393 61.5687 8.99393C60.8597 8.99393 60.286 8.41962 60.286 7.71127C60.286 7.00292 60.8597 6.42861 61.5687 6.42861Z" fill="black"/>
<path d="M76.9604 23.1035C76.9636 20.5231 75.0458 18.3436 72.4861 18.0179C69.9264 17.6922 67.524 19.3219 66.8807 21.8208H65.4165C64.7075 21.8208 64.1338 22.3951 64.1338 23.1035C64.1338 23.8118 64.7075 24.3861 65.4165 24.3861H66.8807C67.3486 26.1823 68.7509 27.5846 70.5471 28.0519V29.5168C70.5471 30.2251 71.1208 30.7994 71.8298 30.7994C72.5381 30.7994 73.1124 30.2251 73.1124 29.5168V28.0519C75.3702 27.4688 76.9517 25.4358 76.9604 23.1035ZM71.8298 25.6688C70.4124 25.6688 69.2644 24.5201 69.2644 23.1035C69.2644 21.6868 70.4124 20.5381 71.8298 20.5381C73.2465 20.5381 74.3951 21.6868 74.3951 23.1035C74.3951 24.5201 73.2465 25.6688 71.8298 25.6688Z" fill="black"/>
<path d="M0.376757 4.77056C0.877171 5.2716 1.68948 5.2716 2.1899 4.77056L2.5663 4.39478L2.94208 4.77056C3.445 5.25657 4.24541 5.24968 4.74019 4.75491C5.23497 4.26013 5.24186 3.46034 4.75522 2.9568L4.37944 2.58102L4.75522 2.20524C5.08904 1.88332 5.22244 1.40608 5.10532 0.957648C4.98821 0.509217 4.63748 0.159115 4.18905 0.041997C3.74062 -0.0757475 3.264 0.0582807 2.94208 0.391472L2.5663 0.767253L2.1899 0.391472C1.68698 -0.0945366 0.887192 -0.0876472 0.392414 0.40713C-0.102363 0.901907 -0.109879 1.70232 0.376757 2.20524L0.752537 2.58102L0.376757 2.9568C-0.124283 3.45784 -0.124283 4.26952 0.376757 4.77056Z" fill="black"/>
<path d="M12.8285 16.6901C14.9535 16.6901 16.6764 14.9672 16.6764 12.8421C16.6764 10.7171 14.9535 8.99414 12.8285 8.99414C10.7028 8.99414 8.98047 10.7171 8.98047 12.8421C8.98047 14.9672 10.7028 16.6901 12.8285 16.6901ZM12.8285 11.5595C13.5368 11.5595 14.1111 12.1338 14.1111 12.8421C14.1111 13.5505 13.5368 14.1248 12.8285 14.1248C12.1195 14.1248 11.5458 13.5505 11.5458 12.8421C11.5458 12.1338 12.1195 11.5595 12.8285 11.5595Z" fill="black"/>
<path d="M5.13196 29.5166V27.9953C6.21796 27.6077 7.07286 26.7528 7.46117 25.6661H8.97995C9.68829 25.6661 10.2626 25.0918 10.2626 24.3835C10.2626 23.6751 9.68829 23.1008 8.97995 23.1008H7.46117C6.86744 21.4123 5.18582 20.3576 3.40775 20.5586C1.62906 20.7603 0.225523 22.1639 0.0244805 23.9419C-0.176562 25.7206 0.877501 27.4022 2.56663 27.9953V29.5141C2.56663 30.2225 3.14032 30.7968 3.8493 30.7968C4.55764 30.7968 5.13196 30.2225 5.13196 29.5141V29.5166ZM3.8493 23.1033C4.55764 23.1033 5.13196 23.6776 5.13196 24.386C5.13196 25.0943 4.55764 25.6686 3.8493 25.6686C3.14032 25.6686 2.56663 25.0943 2.56663 24.386C2.56663 23.6776 3.14032 23.1033 3.8493 23.1033Z" fill="black"/>
<path d="M28.2188 68.0215L29.5014 75.7175H47.4587L48.7414 68.0215H28.2188Z" fill="#2F3C4F"/>
<path d="M28.2198 13.5139C28.2198 12.2575 28.6807 11.045 29.515 10.1062L36.5633 2.17659C37.05 1.62858 37.7477 1.31543 38.4811 1.31543C39.2138 1.31543 39.9115 1.62858 40.3982 2.17659L47.4528 10.1062C48.2852 11.0463 48.7436 12.2588 48.7424 13.5139L50.025 37.2175L65.0318 46.218C67.7099 47.8245 69.5099 50.5627 69.9239 53.6578L71.8303 68.0014H5.13184L7.04393 53.6616C7.45792 50.5664 9.25853 47.8282 11.936 46.2218L26.9371 37.2175L28.2198 13.5139Z" fill="#EA5013"/>
<path d="M42.3298 19.2804C42.3298 14.322 40.6068 10.3018 38.4818 10.3018C36.3561 10.3018 34.6338 14.322 34.6338 19.2804C34.6338 24.2394 36.3561 28.259 38.4818 28.259C40.6068 28.259 42.3298 24.2394 42.3298 19.2804Z" fill="#506F86"/>
<path d="M20.5241 56.4769C20.5241 58.6019 18.8012 60.3249 16.6761 60.3249C14.5505 60.3249 12.8281 58.6019 12.8281 56.4769C12.8281 54.3519 14.5505 52.6289 16.6761 52.6289C18.8012 52.6289 20.5241 54.3519 20.5241 56.4769Z" fill="#506F86"/>
<path d="M52.5908 52.6289H62.8521V60.3249H52.5908V52.6289Z" fill="#506F86"/>
<path d="M20.5237 41.0841L14.1104 44.9321V33.3881L17.9583 32.1055L20.5237 41.0841Z" fill="#2F3C4F"/>
<path d="M56.4385 41.0841L62.8518 44.9321V33.3881L59.0038 32.1055L56.4385 41.0841Z" fill="#2F3C4F"/>
<path d="M64.1346 7.73622C64.1346 9.15292 62.9859 10.3015 61.5692 10.3015C60.1519 10.3015 59.0039 9.15292 59.0039 7.73622C59.0039 6.31953 60.1519 5.1709 61.5692 5.1709C62.9859 5.1709 64.1346 6.31953 64.1346 7.73622Z" fill="#506F86"/>
<path d="M75.6784 23.1283C75.6784 25.2533 73.9554 26.9763 71.8304 26.9763C69.7047 26.9763 67.9824 25.2533 67.9824 23.1283C67.9824 21.0032 69.7047 19.2803 71.8304 19.2803C73.9554 19.2803 75.6784 21.0032 75.6784 23.1283Z" fill="#506F86"/>
<path d="M15.3933 12.8671C15.3933 14.2838 14.2447 15.4324 12.828 15.4324C11.4107 15.4324 10.2627 14.2838 10.2627 12.8671C10.2627 11.4504 11.4107 10.3018 12.828 10.3018C14.2447 10.3018 15.3933 11.4504 15.3933 12.8671Z" fill="#506F86"/>
<path d="M6.41483 24.411C6.41483 25.8277 5.2662 26.9764 3.84951 26.9764C2.43219 26.9764 1.28418 25.8277 1.28418 24.411C1.28418 22.9943 2.43219 21.8457 3.84951 21.8457C5.2662 21.8457 6.41483 22.9943 6.41483 24.411Z" fill="#506F86"/>
<path d="M65.6858 45.1383L64.1338 44.207V33.3889C64.1332 32.8372 63.7799 32.3474 63.2563 32.1733L59.4083 30.8906C59.077 30.7773 58.7138 30.8067 58.405 30.9714C58.0956 31.1343 57.8664 31.4174 57.7699 31.7537L55.6681 39.1252L51.1468 36.4121L50.0245 13.5346C50.0264 11.962 49.4495 10.4432 48.4043 9.26824L41.3496 1.33928C40.6193 0.517577 39.5728 0.0478516 38.4736 0.0478516C37.3751 0.0478516 36.3286 0.517577 35.5983 1.33928L28.5562 9.26824C27.5209 10.425 26.9447 11.9206 26.9366 13.4732L25.8167 36.4121L21.2923 39.1252L19.1905 31.7537C19.094 31.4174 18.8648 31.1343 18.5554 30.9714C18.2466 30.8067 17.8834 30.7773 17.5521 30.8906L13.7041 32.1733C13.1805 32.3474 12.8273 32.8372 12.8273 33.3889V44.207L11.2747 45.1383C8.25527 46.9396 6.22794 50.0247 5.77262 53.5113L3.8599 67.8517C3.81105 68.2181 3.92253 68.5876 4.16616 68.8657C4.40979 69.1438 4.76114 69.3035 5.13129 69.3035H27.1326L28.2368 75.9273C28.3395 76.5454 28.8743 76.9995 29.5019 76.9995H47.4592C48.0861 76.9995 48.621 76.5454 48.7237 75.9273L49.8278 69.3035H71.8298C72.1993 69.3035 72.5506 69.1438 72.7943 68.8657C73.0379 68.5876 73.1494 68.2181 73.1005 67.8517L71.1884 53.5113C70.7331 50.0247 68.7051 46.9396 65.6858 45.1383ZM59.8687 33.7466L61.5685 34.314V42.6663L57.9409 40.4862L59.8687 33.7466ZM15.3926 34.314L17.0917 33.7466L19.0157 40.4912L15.3926 42.6663V34.314ZM46.3725 74.4342H30.5879L29.7324 69.3035H37.1979V70.5862C37.1979 71.2945 37.7716 71.8688 38.4805 71.8688C39.1889 71.8688 39.7632 71.2945 39.7632 70.5862V69.3035H47.2281L46.3725 74.4342ZM39.7632 66.7382V53.9115C39.7632 53.2032 39.1889 52.6289 38.4805 52.6289C37.7716 52.6289 37.1979 53.2032 37.1979 53.9115V66.7382H6.59558L8.31477 53.8502C8.66863 51.1383 10.2463 48.7389 12.5949 47.3379L25.6664 39.4947L25.6539 39.7396C25.642 39.9933 25.7053 40.2451 25.8355 40.463L29.6835 46.8763C30.0549 47.4688 30.8321 47.6554 31.4315 47.2953C32.0309 46.9352 32.2313 46.1611 31.8825 45.5548L28.2355 39.4766L29.5019 13.5346C29.5013 12.592 29.8476 11.6814 30.4739 10.9768L37.521 3.04908C37.7691 2.78165 38.1179 2.62946 38.483 2.62946C38.8475 2.62946 39.1964 2.78165 39.445 3.04908L46.4928 10.9768C47.1279 11.7008 47.4717 12.6346 47.4592 13.5972L48.7224 39.4766L45.0767 45.5548C44.8312 45.9481 44.8162 46.4435 45.0385 46.8506C45.2608 47.2577 45.6861 47.5126 46.1496 47.5183C46.613 47.5233 47.0439 47.2778 47.2757 46.8763L51.1236 40.463C51.2545 40.2451 51.3184 39.9933 51.3072 39.7396L51.2953 39.4947L64.3655 47.3379C66.7141 48.7389 68.2918 51.1383 68.6457 53.8502L70.3648 66.7382H39.7632Z" fill="black"/>
<path d="M38.4812 29.5412C41.8495 29.5412 43.6119 24.3786 43.6119 19.2799C43.6119 14.1811 41.8495 9.01855 38.4812 9.01855C35.1124 9.01855 33.3506 14.1799 33.3506 19.2799C33.3506 24.3798 35.1124 29.5412 38.4812 29.5412ZM38.4812 11.5839C39.3787 11.5839 41.0466 14.5056 41.0466 19.2799C41.0466 24.0541 39.3787 26.9758 38.4812 26.9758C37.5831 26.9758 35.9159 24.0541 35.9159 19.2799C35.9159 14.5056 37.5831 11.5839 38.4812 11.5839Z" fill="black"/>
<path d="M16.6765 51.3457C13.8425 51.3457 11.5459 53.643 11.5459 56.4764C11.5459 59.3097 13.8425 61.607 16.6765 61.607C19.5099 61.607 21.8072 59.3097 21.8072 56.4764C21.8072 53.643 19.5099 51.3457 16.6765 51.3457ZM16.6765 59.0417C15.2592 59.0417 14.1112 57.893 14.1112 56.4764C14.1112 55.0597 15.2592 53.911 16.6765 53.911C18.0932 53.911 19.2419 55.0597 19.2419 56.4764C19.2419 57.893 18.0932 59.0417 16.6765 59.0417Z" fill="black"/>
<path d="M62.8516 51.3457H52.5903C51.8813 51.3457 51.3076 51.92 51.3076 52.6284V60.3243C51.3076 61.0327 51.8813 61.607 52.5903 61.607H62.8516C63.5599 61.607 64.1342 61.0327 64.1342 60.3243V52.6284C64.1342 51.92 63.5599 51.3457 62.8516 51.3457ZM61.5689 59.0417H53.8729V53.911H61.5689V59.0417Z" fill="black"/>
<path d="M41.9537 31.2025C41.4533 30.702 40.641 30.702 40.1405 31.2025L32.4446 38.8984C32.1107 39.2204 31.9773 39.6976 32.0945 40.146C32.2122 40.5945 32.5623 40.9446 33.0107 41.0623C33.4592 41.1794 33.9358 41.046 34.2577 40.7122L41.9537 33.0162C42.4547 32.5152 42.4547 31.7035 41.9537 31.2025Z" fill="black"/>
<path d="M42.705 36.3317L35.009 44.0277C34.6752 44.3496 34.5418 44.8268 34.6589 45.2753C34.7767 45.7237 35.1268 46.0738 35.5752 46.1915C36.0236 46.3087 36.5002 46.1753 36.8222 45.8414L44.5181 38.1455C45.0048 37.6425 44.9979 36.8421 44.5031 36.3474C44.0083 35.8526 43.2079 35.8457 42.705 36.3317Z" fill="black"/>
<path d="M61.5687 11.5837C63.6937 11.5837 65.4167 9.86072 65.4167 7.73568C65.4167 5.61065 63.6937 3.8877 61.5687 3.8877C59.443 3.8877 57.7207 5.61065 57.7207 7.73568C57.7207 9.86072 59.443 11.5837 61.5687 11.5837ZM61.5687 6.45302C62.277 6.45302 62.8514 7.02734 62.8514 7.73568C62.8514 8.44403 62.277 9.01835 61.5687 9.01835C60.8597 9.01835 60.286 8.44403 60.286 7.73568C60.286 7.02734 60.8597 6.45302 61.5687 6.45302Z" fill="black"/>
<path d="M76.9604 23.1288C76.9636 20.5485 75.0458 18.369 72.4861 18.0433C69.9264 17.7176 67.524 19.3472 66.8807 21.8462H65.4165C64.7075 21.8462 64.1338 22.4205 64.1338 23.1288C64.1338 23.8372 64.7075 24.4115 65.4165 24.4115H66.8807C67.3505 26.2065 68.7521 27.6081 70.5471 28.0772V29.5422C70.5471 30.2505 71.1208 30.8248 71.8298 30.8248C72.5381 30.8248 73.1124 30.2505 73.1124 29.5422V28.0772C75.3702 27.4942 76.9517 25.4612 76.9604 23.1288ZM71.8298 25.6942C70.4124 25.6942 69.2644 24.5455 69.2644 23.1288C69.2644 21.7122 70.4124 20.5635 71.8298 20.5635C73.2465 20.5635 74.3951 21.7122 74.3951 23.1288C74.3951 24.5455 73.2465 25.6942 71.8298 25.6942Z" fill="black"/>
<path d="M0.377301 4.79443C0.877715 5.29547 1.69003 5.29547 2.19044 4.79443L2.56685 4.41865L2.94263 4.79443C3.44805 5.26039 4.23155 5.24474 4.71819 4.75873C5.20482 4.27272 5.22173 3.48984 4.75577 2.98317L4.37999 2.60739L4.75577 2.23161C5.08958 1.90969 5.22299 1.43245 5.10587 0.984015C4.98875 0.535584 4.63802 0.185482 4.18959 0.0683642C3.74116 -0.0493804 3.26454 0.084648 2.94263 0.41784L2.56685 0.791115L2.19044 0.41784C1.68502 -0.0481277 0.901514 -0.0324702 0.414879 0.453539C-0.0717566 0.939548 -0.0880403 1.72305 0.377301 2.2291L0.753081 2.60488L0.377301 2.98317C-0.121861 3.48421 -0.121861 4.29401 0.377301 4.79443Z" fill="black"/>
<path d="M12.8285 16.7145C14.9535 16.7145 16.6764 14.9916 16.6764 12.8665C16.6764 10.7415 14.9535 9.01855 12.8285 9.01855C10.7028 9.01855 8.98047 10.7415 8.98047 12.8665C8.98047 14.9916 10.7028 16.7145 12.8285 16.7145ZM12.8285 11.5839C13.5368 11.5839 14.1111 12.1582 14.1111 12.8665C14.1111 13.5749 13.5368 14.1492 12.8285 14.1492C12.1195 14.1492 11.5458 13.5749 11.5458 12.8665C11.5458 12.1582 12.1195 11.5839 12.8285 11.5839Z" fill="black"/>
<path d="M5.13196 29.5415V28.0227C6.21796 27.635 7.07286 26.7801 7.46117 25.6935H8.97995C9.68829 25.6935 10.2626 25.1192 10.2626 24.4108C10.2626 23.7025 9.68829 23.1281 8.97995 23.1281H7.46117C6.86744 21.4396 5.18582 20.385 3.40775 20.586C1.62906 20.7877 0.225523 22.1912 0.0244805 23.9693C-0.176562 25.748 0.877501 27.4296 2.56663 28.0227V29.5415C2.56663 30.2498 3.14032 30.8241 3.8493 30.8241C4.55764 30.8241 5.13196 30.2498 5.13196 29.5415ZM3.8493 23.1281C4.55764 23.1281 5.13196 23.7025 5.13196 24.4108C5.13196 25.1192 4.55764 25.6935 3.8493 25.6935C3.14032 25.6935 2.56663 25.1192 2.56663 24.4108C2.56663 23.7025 3.14032 23.1281 3.8493 23.1281Z" fill="black"/>
</g>
</svg>
