<svg width="83" height="77" viewBox="0 0 83 77" fill="none" xmlns="http://www.w3.org/2000/svg">
<mask id="mask0" mask-type="alpha" maskUnits="userSpaceOnUse" x="0" y="0" width="83" height="77">
<rect width="83" height="77" fill="#C4C4C4"/>
</mask>
<g mask="url(#mask0)">
<path d="M61.0172 46.6792H11.2431C10.4765 46.6792 9.85449 46.0555 9.85449 45.2868V15.2156C9.85449 14.4469 10.4765 13.8232 11.2431 13.8232L25.9055 13.1215L29.8512 3.4668L42.5736 3.6255L46.6466 13.0273L61.0172 13.8232C61.7838 13.8232 62.4058 14.4469 62.4058 15.2156V45.2856C62.4058 46.0555 61.7838 46.6792 61.0172 46.6792Z" fill="#636A75"/>
<circle cx="36.1303" cy="30.1757" r="13.3954" fill="#434343"/>
<path d="M36.1301 38.6208C40.7397 38.6208 44.4765 34.8738 44.4765 30.2518C44.4765 25.6297 40.7397 21.8828 36.1301 21.8828C31.5205 21.8828 27.7837 25.6297 27.7837 30.2518C27.7837 34.8738 31.5205 38.6208 36.1301 38.6208Z" fill="#BFECFF"/>
<path d="M22.9584 9.7041H15.7817V12.49H22.9584V9.7041Z" fill="#434343"/>
<path d="M21.486 32.3698H19.3839C18.6717 32.3698 18.0942 31.7908 18.0942 31.0767V28.9689C18.0942 28.2548 18.6717 27.6758 19.3839 27.6758H21.486C22.1982 27.6758 22.7756 28.2548 22.7756 28.9689V31.0767C22.7756 31.7908 22.1982 32.3698 21.486 32.3698Z" fill="#434343"/>
<path d="M40.5834 12.8058H31.2145C30.9783 12.8058 30.7866 12.6137 30.7866 12.3769V7.38895C30.7866 7.15214 30.9783 6.95996 31.2145 6.95996H40.5834C40.8196 6.95996 41.0113 7.15214 41.0113 7.38895V12.3769C41.0113 12.6137 40.8196 12.8058 40.5834 12.8058Z" fill="#BFECFF"/>
<path d="M59.6239 11.9637H46.747L45.3498 6.35835C44.7463 3.93941 42.3265 2.04492 39.8399 2.04492H32.4209C29.9343 2.04492 27.5145 3.93941 26.9123 6.35835L25.515 11.9637H24.0745V9.17404C24.0745 8.66075 23.6591 8.24416 23.1471 8.24416H15.7281C15.2162 8.24416 14.8008 8.66075 14.8008 9.17404V11.9637H12.6369C10.0798 11.9637 8 14.0491 8 16.6131V43.8898C8 46.4538 10.0798 48.5392 12.6369 48.5392H59.6239C62.181 48.5392 64.2608 46.4538 64.2608 43.8898V16.6131C64.2608 14.0491 62.181 11.9637 59.6239 11.9637ZM16.6555 10.1039H22.2198V11.9637H16.6555V10.1039ZM12.6369 13.8235H26.2384C26.6638 13.8235 27.0347 13.5333 27.1386 13.1192L28.7114 6.80841C29.1034 5.23381 30.8023 3.90469 32.4209 3.90469H39.8399C41.4585 3.90469 43.1574 5.23505 43.5494 6.80841L45.1222 13.1192C45.2249 13.5333 45.5958 13.8235 46.0224 13.8235H59.6239C61.1584 13.8235 62.4061 15.0745 62.4061 16.6131V19.4028H45.8159C43.244 17.0917 39.8486 15.6832 36.1304 15.6832C32.4122 15.6832 29.0168 17.0917 26.4449 19.4028H9.85475V16.6131C9.85475 15.0745 11.1024 13.8235 12.6369 13.8235ZM36.1304 42.9599C29.1417 42.9599 23.4563 37.2591 23.4563 30.2514C23.4563 23.2438 29.1417 17.543 36.1304 17.543C43.1191 17.543 48.8045 23.2438 48.8045 30.2514C48.8045 37.2591 43.1191 42.9599 36.1304 42.9599ZM9.85475 21.2626H24.7039C23.434 22.8818 22.4992 24.7775 22.0034 26.8419H20.2809C18.4064 26.8419 16.8806 28.3718 16.8806 30.2514C16.8806 32.1311 18.4052 33.661 20.2809 33.661H22.0046C22.5005 35.7254 23.4352 37.6211 24.7051 39.2403H9.85475V21.2626ZM21.6844 31.8013H20.2809C19.429 31.8013 18.7353 31.1057 18.7353 30.2514C18.7353 29.3972 19.429 28.7016 20.2809 28.7016H21.6844C21.63 29.2112 21.6015 29.7282 21.6015 30.2514C21.6015 30.7747 21.63 31.2917 21.6844 31.8013ZM59.6239 46.6794H12.6369C11.1024 46.6794 9.85475 45.4284 9.85475 43.8898V41.1001H26.4449C29.0168 43.4112 32.4122 44.8196 36.1304 44.8196C39.8486 44.8196 43.244 43.4112 45.8159 41.1001H52.2049C52.7168 41.1001 53.1323 40.6835 53.1323 40.1702C53.1323 39.6569 52.7168 39.2403 52.2049 39.2403H47.5569C49.4995 36.7631 50.6593 33.6399 50.6593 30.2514C50.6593 26.8629 49.4995 23.7398 47.5569 21.2626H62.4061V39.2403H50.5122C50.0002 39.2403 49.5848 39.6569 49.5848 40.1702C49.5848 40.6835 50.0002 41.1001 50.5122 41.1001H62.4061V43.8898C62.4061 45.4284 61.1584 46.6794 59.6239 46.6794Z" fill="black"/>
<path d="M30.062 13.8224H42.1982C42.4839 13.8224 42.7534 13.691 42.929 13.4653C43.1046 13.2397 43.1664 12.9458 43.0972 12.6681L41.5515 6.46888C41.4489 6.05477 41.078 5.76465 40.6514 5.76465H31.6064C31.181 5.76465 30.81 6.05477 30.7062 6.46888L29.1606 12.6681C29.0913 12.9458 29.1531 13.2397 29.33 13.4653C29.5068 13.691 29.7763 13.8224 30.062 13.8224ZM32.3322 7.62318H39.9292L41.0112 11.9626H31.2502L32.3322 7.62318Z" fill="black"/>
<path d="M36.1302 20.6436C30.8467 20.6436 26.5474 24.9545 26.5474 30.2524C26.5474 35.5502 30.8467 39.8612 36.1302 39.8612C41.4138 39.8612 45.7131 35.5502 45.7131 30.2524C45.7131 24.9545 41.4138 20.6436 36.1302 20.6436ZM36.1302 38.0014C31.8693 38.0014 28.4021 34.5249 28.4021 30.2524C28.4021 25.9799 31.8693 22.5033 36.1302 22.5033C40.3912 22.5033 43.8584 25.9799 43.8584 30.2524C43.8584 34.5249 40.3912 38.0014 36.1302 38.0014Z" fill="black"/>
<path d="M41.5374 27.9549C41.3384 27.4813 40.7931 27.2606 40.3219 27.4602C39.8496 27.6599 39.6295 28.2054 39.8286 28.679C40.4691 30.2003 40.1328 31.9361 38.9717 33.1015C38.2137 33.8616 37.2047 34.2794 36.1302 34.2794C35.0557 34.2794 34.0467 33.8616 33.2887 33.1015C32.9264 32.7383 32.3391 32.7383 31.9768 33.1015C31.6145 33.4648 31.6145 34.0537 31.9768 34.417C33.0847 35.5279 34.5599 36.1392 36.1302 36.1392C37.7006 36.1392 39.1757 35.5279 40.2836 34.417C41.9813 32.7135 42.4735 30.1767 41.5374 27.9549Z" fill="black"/>
<path d="M32.6331 27.6734C32.8705 27.6734 33.1079 27.5829 33.2885 27.4006C34.4495 26.2364 36.1806 25.8992 37.6991 26.5414C38.1702 26.741 38.7155 26.5191 38.9146 26.0467C39.1136 25.5743 38.8923 25.0275 38.4212 24.8279C36.2041 23.8894 33.6755 24.3828 31.9778 26.0851C31.6155 26.4484 31.6155 27.0373 31.9778 27.4006C32.1583 27.5816 32.3957 27.6734 32.6331 27.6734Z" fill="black"/>
<path d="M29.8798 52.433H41.8529H44.3469C45.1704 52.433 45.8431 51.7573 45.8431 50.9328C45.8431 50.1083 45.1692 49.4326 44.3469 49.4326H27.3858C26.5623 49.4326 25.8896 50.1083 25.8896 50.9328C25.8896 51.7573 26.5635 52.433 27.3858 52.433H29.8798Z" fill="#BCCBD3"/>
<path d="M41.8529 55.4353V52.4336H29.8799V55.4353C29.8799 56.8908 30.9272 58.1133 32.3034 58.3811C32.9612 57.0781 34.3103 56.1841 35.8658 56.1841C37.4225 56.1841 38.7703 57.0768 39.4281 58.3811C40.8056 58.1121 41.8529 56.8908 41.8529 55.4353Z" fill="#636A75"/>
<path d="M39.429 58.3816C38.7712 57.0785 37.4234 56.1846 35.8667 56.1846C34.3099 56.1846 32.9621 57.0773 32.3043 58.3816C32.031 58.9234 31.8765 59.5371 31.8765 60.1868C31.8765 61.542 32.5479 62.7396 33.5754 63.4625C34.2233 63.92 35.0147 64.1878 35.8679 64.1878C36.7211 64.1878 37.5112 63.9187 38.1604 63.4625C38.3495 63.3298 38.5276 63.1798 38.6908 63.0161C39.4129 62.2921 39.8593 61.2915 39.8593 60.1868C39.8568 59.5371 39.7023 58.9234 39.429 58.3816Z" fill="#434343"/>
<path d="M32.3034 58.3795C30.9272 58.1104 29.8798 56.8892 29.8798 55.4336H28.2588C26.9555 55.4336 25.8896 56.5023 25.8896 57.8091C25.8896 59.1159 26.9555 60.1847 28.2588 60.1847H31.8756C31.8756 59.535 32.0301 58.9213 32.3034 58.3795Z" fill="#BCCBD3"/>
<path d="M46.4007 59.1143L51.3392 64.0662C51.9216 64.6502 52.8737 64.6502 53.4561 64.0662C54.0385 63.4823 54.0385 62.5276 53.4561 61.9436L48.5175 56.9917C47.9352 56.4077 46.9831 56.4077 46.4007 56.9917C45.8183 57.5757 45.8183 58.5303 46.4007 59.1143Z" fill="#434343"/>
<path d="M38.1579 69.3906V63.4629C37.5087 63.9204 36.7186 64.1882 35.8654 64.1882C35.0122 64.1882 34.2221 63.9192 33.5729 63.4629V69.3919H28.5342C27.2742 69.3919 26.2417 70.4259 26.2417 71.6905C26.2417 71.7761 26.2466 71.8616 26.2565 71.9447C26.3839 73.0903 27.3595 73.9892 28.5342 73.9892H30.3729H33.5729V71.6905C33.5729 70.4259 34.6042 69.3919 35.8654 69.3919C37.1266 69.3919 38.1579 70.4259 38.1579 71.6905V73.9892H41.3579H43.1966C44.3713 73.9892 45.3469 73.0903 45.4742 71.9447C45.4841 71.8616 45.4891 71.7761 45.4891 71.6905C45.4891 70.4259 44.4578 69.3919 43.1966 69.3919H38.1579V69.3906Z" fill="#BCCBD3"/>
<path d="M38.1587 71.6864C38.1587 70.4217 37.1274 69.3877 35.8662 69.3877C34.605 69.3877 33.5737 70.4217 33.5737 71.6864V73.9851H38.1574L38.1587 71.6864Z" fill="#434343"/>
<path d="M38.1589 73.9854H33.5752V132.697C33.5752 133.962 34.6064 134.996 35.8677 134.996C37.1277 134.996 38.1601 133.962 38.1601 132.697L38.1589 73.9854Z" fill="#636A75"/>
<path d="M20.5208 128.841L30.3733 73.9869H28.5346C27.3599 73.9869 26.3843 73.088 26.257 71.9424L16.5504 126.544C15.9198 127.639 16.2982 129.051 17.39 129.683C18.4818 130.316 19.8902 129.936 20.5208 128.841Z" fill="#636A75"/>
<path d="M41.3599 73.9856L52.3487 128.84C52.9793 129.935 54.3876 130.313 55.4795 129.682C56.5713 129.05 56.9484 127.638 56.3178 126.543L45.4749 71.9424C45.3476 73.088 44.372 73.9869 43.1973 73.9869L41.3599 73.9856Z" fill="#636A75"/>
<path d="M57.1819 126.046L46.4874 71.7006C46.4874 71.6968 46.4874 71.6944 46.4874 71.6906C46.4874 69.8718 45.011 68.3914 43.1971 68.3914H39.1562V64.7475C39.2576 64.781 39.3627 64.7983 39.4678 64.7983C39.7225 64.7983 39.9785 64.7004 40.1738 64.5057C40.5633 64.1152 40.5633 63.4816 40.1738 63.0911L40.0267 62.9435C40.5497 62.1525 40.8551 61.2053 40.8551 60.1873C40.8551 59.7708 40.8032 59.3678 40.708 58.981C41.9952 58.304 42.8508 56.9513 42.8508 55.4362V54.8498L45.1371 57.1423C44.7872 58.0399 44.9727 59.1 45.6948 59.8241L50.6334 64.776C51.1033 65.2472 51.7302 65.5063 52.3966 65.5063C53.0644 65.5063 53.69 65.2472 54.1599 64.776C54.6298 64.3049 54.8882 63.6763 54.8882 63.008C54.8882 62.3385 54.6298 61.7111 54.1599 61.24L49.2213 56.288C48.7514 55.8169 48.1245 55.5565 47.458 55.5565C47.1415 55.5565 46.8336 55.616 46.5467 55.7276L44.2605 53.4351H44.3458C45.7208 53.4351 46.8398 52.3131 46.8398 50.9344C46.8398 49.5557 45.7208 48.4336 44.3458 48.4336H27.3859C26.0109 48.4336 24.8919 49.5557 24.8919 50.9344C24.8919 52.3131 26.0109 53.4351 27.3859 53.4351H28.8821V54.4357H28.2577C26.4017 54.4357 24.8907 55.9508 24.8907 57.8118C24.8907 59.6728 26.4017 61.1879 28.2577 61.1879H30.9767C31.1981 62.2765 31.773 63.2361 32.5755 63.9428V68.3914H28.5346C26.7207 68.3914 25.2443 69.8705 25.2443 71.6906C25.2443 71.6944 25.2443 71.6981 25.2443 71.7006L15.6849 126.046C15.2447 128.395 15.3177 129.642 16.8893 130.552C17.3863 130.84 17.9527 130.993 18.5276 130.993C19.7035 130.993 20.9821 130.447 21.3827 129.345L30.947 74.9899H32.5743V132.701C32.5743 134.52 34.0507 136 35.8646 136C37.6786 136 39.1549 134.521 39.1549 132.701V74.9899H40.7822C40.7822 74.9899 48.2853 114.913 51.4829 129.345C51.7363 130.49 53.162 130.993 54.3379 130.993C54.9117 130.993 55.4792 130.84 55.9763 130.552C57.5491 129.642 57.6221 127.902 57.1819 126.046ZM44.4917 71.6906C44.4917 71.7526 44.4855 71.8134 44.4768 71.8729C44.3989 72.4209 43.9674 72.8623 43.4357 72.9652C43.4345 72.9652 43.4332 72.9652 43.432 72.9652C43.3949 72.9726 43.3578 72.9776 43.3195 72.9813C43.2787 72.985 43.2379 72.9875 43.1958 72.9875H39.1549V71.6894C39.1549 71.2294 39.0597 70.7905 38.8891 70.3913H43.1958C43.9118 70.3938 44.4917 70.9753 44.4917 71.6906ZM34.5725 72.9888V71.6906C34.5725 70.9753 35.1536 70.3925 35.8671 70.3925C36.5805 70.3925 37.1617 70.9753 37.1617 71.6906V72.9888H34.5725ZM37.984 60.8965C37.5945 60.506 36.9626 60.506 36.5731 60.8965C36.1836 61.2871 36.1836 61.9207 36.5731 62.3112L37.1568 62.8964C36.766 63.0849 36.3283 63.1903 35.8671 63.1903C34.2164 63.1903 32.8735 61.8438 32.8735 60.1886C32.8735 59.679 33.0009 59.1992 33.2247 58.7789C33.2333 58.7615 33.2432 58.7454 33.2519 58.7293C33.6204 58.0684 34.23 57.5613 34.9595 57.3283C34.9682 57.3258 34.9768 57.3221 34.9842 57.3196C35.0213 57.3084 35.0597 57.2973 35.0967 57.2873C35.1202 57.2811 35.145 57.2749 35.1685 57.27C35.1994 57.2625 35.2303 57.2551 35.2612 57.2489C35.3156 57.2377 35.37 57.2278 35.4244 57.2204C35.4454 57.2167 35.4665 57.2154 35.4875 57.213C35.5308 57.208 35.574 57.203 35.6186 57.1993C35.6383 57.1981 35.6569 57.1956 35.6767 57.1944C35.7385 57.1906 35.8016 57.1882 35.8646 57.1882C35.9277 57.1882 35.9907 57.1906 36.0526 57.1944C36.0723 57.1956 36.0921 57.1968 36.1107 57.1993C36.1552 57.203 36.1985 57.208 36.2417 57.213C36.2628 57.2154 36.2838 57.2179 36.3048 57.2204C36.3605 57.2291 36.4149 57.2377 36.468 57.2489C36.4989 57.2551 36.5299 57.2625 36.5595 57.27C36.5843 57.2762 36.6078 57.2811 36.6325 57.2886C36.6696 57.2985 36.7079 57.3097 36.745 57.3208C36.7537 57.3233 36.7623 57.327 36.771 57.3295C37.4993 57.5626 38.1076 58.0684 38.4761 58.7256C38.486 58.7442 38.4971 58.7628 38.507 58.7826C38.7296 59.2029 38.8569 59.6815 38.8569 60.1898C38.8569 60.6523 38.7518 61.0912 38.5639 61.483L37.984 60.8965ZM47.8117 57.7027L52.7503 62.6546C52.8752 62.7799 52.8949 62.9299 52.8949 63.008C52.8949 63.0861 52.8764 63.2361 52.7503 63.3614C52.6242 63.4878 52.4758 63.5064 52.3979 63.5064C52.32 63.5064 52.1704 63.4878 52.0455 63.3614L47.1069 58.4094C46.9808 58.2829 46.9622 58.1342 46.9622 58.056C46.9622 57.9779 46.9808 57.8279 47.1069 57.7027C47.233 57.5762 47.3814 57.5576 47.4593 57.5576C47.5372 57.5589 47.6856 57.5775 47.8117 57.7027ZM26.8876 50.9356C26.8876 50.6641 27.1164 50.4359 27.3859 50.4359H44.347C44.6178 50.4359 44.8453 50.6653 44.8453 50.9356C44.8453 51.2071 44.6166 51.4353 44.347 51.4353H27.3859C27.1151 51.4353 26.8876 51.2059 26.8876 50.9356ZM40.8551 53.4364V55.4375C40.8551 56.169 40.457 56.8249 39.8486 57.1733C39.1698 56.2682 38.2103 55.6284 37.1246 55.3482C37.1184 55.347 37.1122 55.3445 37.1048 55.3433C37.0418 55.3271 36.9787 55.3123 36.9144 55.2986C36.886 55.2924 36.8575 55.2862 36.8303 55.2813C36.7772 55.2713 36.7252 55.2614 36.6721 55.2528C36.63 55.2466 36.588 55.2404 36.5459 55.2342C36.5014 55.228 36.4569 55.2218 36.4124 55.2168C36.3567 55.2106 36.3023 55.2069 36.2467 55.2019C36.2121 55.1994 36.1775 55.1957 36.1428 55.1945C36.0513 55.1895 35.9586 55.187 35.8659 55.187C35.7731 55.187 35.6804 55.1895 35.5889 55.1957C35.5543 55.1982 35.5209 55.2007 35.4862 55.2032C35.4306 55.2069 35.375 55.2118 35.3193 55.218C35.2748 55.223 35.2303 55.2292 35.1858 55.2354C35.1437 55.2416 35.1017 55.2466 35.0597 55.254C35.0065 55.2627 34.9533 55.2726 34.9014 55.2825C34.8729 55.2887 34.8445 55.2937 34.8161 55.2999C34.7518 55.3135 34.6887 55.3284 34.6256 55.3445C34.6195 55.3457 34.612 55.3482 34.6059 55.3495C33.5202 55.6309 32.5619 56.2694 31.8818 57.1745C31.2747 56.8249 30.8753 56.169 30.8753 55.4375V53.4364H40.8551ZM26.8876 57.813C26.8876 57.0543 27.5034 56.438 28.2589 56.438H29.0107C29.2938 57.5328 30.0308 58.459 31.0262 58.9822C31.0089 59.0504 30.9928 59.1186 30.9792 59.188H28.2601C27.5022 59.188 26.8876 58.5706 26.8876 57.813ZM35.8671 65.1901C36.3147 65.1901 36.7487 65.1294 37.1617 65.0178V68.658C36.7648 68.4869 36.3271 68.3914 35.8671 68.3914C35.4071 68.3914 34.9706 68.4869 34.5725 68.658V65.0178C34.9855 65.1294 35.4195 65.1901 35.8671 65.1901ZM19.6566 128.344C19.5008 128.778 18.995 128.991 18.5289 128.991C18.3038 128.991 18.0825 128.932 17.8884 128.819C17.2701 128.461 17.2206 128.141 17.4148 127.046L26.2112 74.0265C26.8085 74.6241 27.6332 74.9899 28.5359 74.9899H28.6459L19.6566 128.344ZM32.5768 72.9888H28.5359C28.4938 72.9888 28.453 72.9863 28.4122 72.9826C28.3739 72.9788 28.3368 72.9726 28.2997 72.9664C28.2985 72.9664 28.2972 72.9664 28.296 72.9664C27.7643 72.8623 27.3328 72.4222 27.2549 71.8741C27.2462 71.8146 27.24 71.7539 27.24 71.6919C27.24 70.9765 27.8212 70.3938 28.5346 70.3938H32.8414C32.6707 70.7918 32.5755 71.2307 32.5755 71.6919L32.5768 72.9888ZM35.8671 133.999C35.1536 133.999 34.5725 133.416 34.5725 132.701V74.9899H37.1617V132.701C37.1605 133.416 36.5805 133.999 35.8671 133.999ZM54.9809 128.819C54.7868 128.932 54.5655 128.991 54.3404 128.991C53.8743 128.991 53.3735 128.776 53.2127 128.344L43.0883 74.9899H43.1983C44.101 74.9899 44.9257 74.6254 45.5229 74.0265L55.4545 127.046C55.6276 127.881 55.5979 128.462 54.9809 128.819Z" fill="black"/>
<path d="M35.9397 58.8465C35.5514 58.4547 34.9196 58.4535 34.5288 58.8428C34.1381 59.2321 34.1369 59.8657 34.5251 60.2575L34.5437 60.2761C34.739 60.4732 34.995 60.5712 35.251 60.5712C35.5057 60.5712 35.7604 60.4745 35.9545 60.2798C36.3453 59.8905 36.3465 59.2569 35.9582 58.8651L35.9397 58.8465Z" fill="black"/>
<path d="M77.534 9.7137L73.6793 10.9346L74.7307 13.7789L72.0416 12.6668L70.8873 17.3833L69.7338 12.6668L67.0448 13.7789L68.0962 10.9346L64.2407 9.7137L68.0954 8.49357L67.044 5.64929L69.7331 6.7614L70.8866 2.04492L72.0409 6.7614L74.7299 5.64929L73.6785 8.49357L77.534 9.7137Z" fill="#FCD770"/>
<path d="M79.5788 9.71429L74.4578 8.15839L75.766 4.77345L72.447 6.08893L70.8878 0L69.3278 6.08969L66.0073 4.77497L67.3163 8.15991L62.1953 9.71429L67.317 11.2702L66.008 14.6551L69.3286 13.3396L70.887 19.4286L72.447 13.3389L75.766 14.6544L74.4578 11.2694L79.5788 9.71429ZM71.6249 11.7077L70.887 14.5874L70.1491 11.7084L68.1256 12.5103L68.9085 10.485L66.3732 9.71429L68.9093 8.94357L68.1263 6.91823L70.1499 7.72091L70.887 4.84193L71.6249 7.72091L73.6485 6.91823L72.8655 8.94357L75.4009 9.71429L72.8648 10.485L73.6478 12.5103L71.6249 11.7077Z" fill="black"/>
<path d="M60.1504 5.62387L59.0104 6.21204L59.4041 7.43382L58.1822 7.04022L57.594 9.20282L57.0058 7.04022L55.7839 7.43382L56.1775 6.21204L55.0376 5.62387L56.1775 5.0357L55.7839 3.81392L57.0058 4.20752L57.594 2.04492L58.1822 4.20752L59.4041 3.81392L59.0104 5.0357L60.1504 5.62387Z" fill="#FCD770"/>
<path d="M55.6103 6.48171L55.0638 8.26472L56.6783 7.72637L57.5941 11.2481L58.5105 7.72637L60.125 8.26472L59.5785 6.48171L61.173 5.62374L59.5779 4.76641L60.1244 2.9834L58.5099 3.52175L57.5941 0L56.6777 3.52175L55.0632 2.9834L55.6097 4.76641L54.0151 5.62439L55.6103 6.48171ZM56.6016 4.58804L57.367 4.84322L57.5947 3.96832L57.8224 4.84322L58.5879 4.58804L58.3733 5.28783L58.9983 5.62439L58.3733 5.96029L58.5879 6.66008L57.8224 6.4049L57.5947 7.28046L57.367 6.40555L56.6016 6.66073L56.8155 5.96094L56.1905 5.62439L56.8155 5.28849L56.6016 4.58804Z" fill="black"/>
</g>
</svg>
